<svg xmlns="http://www.w3.org/2000/svg" xmlns:xlink="http://www.w3.org/1999/xlink" version="1.1" x="0px" y="0px" width="100px" height="100px" viewBox="0 0 100 100" enable-background="new 0 0 100 100" xml:space="preserve">
<g id="Captions">
</g>
<g id="Your_Icon">
	<path id="refresh-3-icon" d="M78.398,22.521l-9.023,9.024c-4.901-4.899-11.668-7.93-19.146-7.93   c-14.952,0-27.074,12.127-27.074,27.079c0,0.003,0-0.004,0,0h10.518l-16.8,16.794L0.092,50.695h10.299c0-0.001,0,0.002,0,0   c0-22.001,17.837-39.843,39.838-39.843C61.23,10.852,71.19,15.311,78.398,22.521z M99.908,49.306L83.126,32.511L66.327,49.306   h10.518c0,0.003,0-0.006,0,0c0,14.951-12.124,27.079-27.075,27.079c-7.475,0-14.245-3.03-19.145-7.93L21.6,77.479   c7.21,7.211,17.169,11.67,28.17,11.67c22.002,0,39.838-17.841,39.838-39.843c0-0.002,0,0.001,0,0H99.908L99.908,49.306z"/>
</g>
</svg>